{
  "accessors": [
    {
      "bufferView": 2,
      "componentType": 5126,
      "count": 170,
      "max": [
        45.837532043457031,
        80.508636474609375,
        50.089710235595703
      ],
      "min": [
        -47.225643157958984,
        -2.1327762603759766,
        -56.041461944580078
      ],
      "type": "VEC3"
    },
    {
      "bufferView": 2,
      "byteOffset": 2040,
      "componentType": 5126,
      "count": 170,
      "max": [
        0.99849832057952881,
        0.90711122751235962,
        0.99408876895904541
      ],
      "min": [
        -0.99849832057952881,
        -0.90711122751235962,
        -0.99408876895904541
      ],
      "type": "VEC3"
    },
    {
      "bufferView": 3,
      "componentType": 5126,
      "count": 170,
      "max": [
        0.99814999103546143,
        0.50131028890609741,
        0.99440097808837891,
        1
      ],
      "min": [
        -0.99828422069549561,
        -0.27712345123291016,
        -0.99767392873764038,
        -1
      ],
      "type": "VEC4"
    },
    {
      "bufferView": 1,
      "componentType": 5126,
      "count": 170,
      "max": [
        0.9744110107421875,
        0.88538169860839844
      ],
      "min": [
        0.09740447998046875,
        0.008392333984375
      ],
      "type": "VEC2"
    },
    {
      "bufferView": 0,
      "componentType": 5125,
      "count": 600,
      "max": [
        169
      ],
      "min": [
        0
      ],
      "type": "SCALAR"
    },
    {
      "bufferView": 2,
      "byteOffset": 4080,
      "componentType": 5126,
      "count": 154,
      "max": [
        70.089179992675781,
        4.9848079681396484,
        62.601116180419922
      ],
      "min": [
        -72.625205993652344,
        -3.7169747352600098,
        -62.601116180419922
      ],
      "type": "VEC3"
    },
    {
      "bufferView": 2,
      "byteOffset": 5928,
      "componentType": 5126,
      "count": 154,
      "max": [
        0.4492262601852417,
        1,
        0.53112071752548218
      ],
      "min": [
        -0.38014650344848633,
        0.40856939554214478,
        -0.91272550821304321
      ],
      "type": "VEC3"
    },
    {
      "bufferView": 3,
      "byteOffset": 2720,
      "componentType": 5126,
      "count": 154,
      "max": [
        0.99977093935012817,
        0.8431706428527832,
        0.89535617828369141,
        1
      ],
      "min": [
        0.29908409714698792,
        -0.51982277631759644,
        -0.71814250946044922,
        1
      ],
      "type": "VEC4"
    },
    {
      "bufferView": 1,
      "byteOffset": 1360,
      "componentType": 5126,
      "count": 154,
      "max": [
        1,
        0.999969482421875
      ],
      "min": [
        3.0517578125e-05,
        0
      ],
      "type": "VEC2"
    },
    {
      "bufferView": 0,
      "byteOffset": 2400,
      "componentType": 5125,
      "count": 390,
      "max": [
        153
      ],
      "min": [
        0
      ],
      "type": "SCALAR"
    },
    {
      "bufferView": 2,
      "byteOffset": 7776,
      "componentType": 5126,
      "count": 616,
      "max": [
        46.990203857421875,
        2.4572851657867432,
        79.011962890625
      ],
      "min": [
        -83.23834228515625,
        -2.4572851657867432,
        -30.472188949584961
      ],
      "type": "VEC3"
    },
    {
      "bufferView": 2,
      "byteOffset": 15168,
      "componentType": 5126,
      "count": 616,
      "max": [
        0.88351911306381226,
        1,
        0.78226876258850098
      ],
      "min": [
        -0.80803072452545166,
        0.44691786170005798,
        -0.89276039600372314
      ],
      "type": "VEC3"
    },
    {
      "bufferView": 3,
      "byteOffset": 5184,
      "componentType": 5126,
      "count": 616,
      "max": [
        0.99809235334396362,
        0.79053807258605957,
        0.99564850330352783,
        1
      ],
      "min": [
        -0.99999707937240601,
        -0.79595959186553955,
        -0.99618124961853027,
        1
      ],
      "type": "VEC4"
    },
    {
      "bufferView": 1,
      "byteOffset": 2592,
      "componentType": 5126,
      "count": 616,
      "max": [
        0.9970550537109375,
        0.96892023086547852
      ],
      "min": [
        0.018910408020019531,
        0.097442626953125
      ],
      "type": "VEC2"
    },
    {
      "bufferView": 0,
      "byteOffset": 3960,
      "componentType": 5125,
      "count": 1488,
      "max": [
        615
      ],
      "min": [
        0
      ],
      "type": "SCALAR"
    },
    {
      "bufferView": 2,
      "byteOffset": 22560,
      "componentType": 5126,
      "count": 1682,
      "max": [
        65.221549987792969,
        305.51516723632812,
        101.28777313232422
      ],
      "min": [
        -86.362052917480469,
        -39.557685852050781,
        -68.478965759277344
      ],
      "type": "VEC3"
    },
    {
      "bufferView": 2,
      "byteOffset": 42744,
      "componentType": 5126,
      "count": 1682,
      "max": [
        0.99925154447555542,
        0.99949550628662109,
        0.9999014139175415
      ],
      "min": [
        -0.99976181983947754,
        -0.99874252080917358,
        -0.99936187267303467
      ],
      "type": "VEC3"
    },
    {
      "bufferView": 3,
      "byteOffset": 15040,
      "componentType": 5126,
      "count": 1682,
      "max": [
        0.99646914005279541,
        0.99780559539794922,
        0.99700063467025757,
        1
      ],
      "min": [
        -0.99999666213989258,
        -0.99964058399200439,
        -0.99667549133300781,
        -1
      ],
      "type": "VEC4"
    },
    {
      "bufferView": 1,
      "byteOffset": 7520,
      "componentType": 5126,
      "count": 1682,
      "max": [
        0.93743771314620972,
        0.99644750356674194
      ],
      "min": [
        0.0035524789709597826,
        0.003552556037902832
      ],
      "type": "VEC2"
    },
    {
      "bufferView": 0,
      "byteOffset": 9912,
      "componentType": 5125,
      "count": 7638,
      "max": [
        1681
      ],
      "min": [
        0
      ],
      "type": "SCALAR"
    },
    {
      "bufferView": 2,
      "byteOffset": 62928,
      "componentType": 5126,
      "count": 3714,
      "max": [
        101.85100555419922,
        233.91873168945312,
        116.69551849365234
      ],
      "min": [
        -104.40850830078125,
        -84.495834350585938,
        -98.399627685546875
      ],
      "type": "VEC3"
    },
    {
      "bufferView": 2,
      "byteOffset": 107496,
      "componentType": 5126,
      "count": 3714,
      "max": [
        0.99961012601852417,
        0.9999699592590332,
        0.99816316366195679
      ],
      "min": [
        -0.99961012601852417,
        -0.99997001886367798,
        -0.99816316366195679
      ],
      "type": "VEC3"
    },
    {
      "bufferView": 3,
      "byteOffset": 41952,
      "componentType": 5126,
      "count": 3714,
      "max": [
        0.99949896335601807,
        0.77466195821762085,
        0.99826949834823608,
        1
      ],
      "min": [
        -0.99986273050308228,
        -0.55030733346939087,
        -0.99991065263748169,
        -1
      ],
      "type": "VEC4"
    },
    {
      "bufferView": 1,
      "byteOffset": 20976,
      "componentType": 5126,
      "count": 3714,
      "max": [
        0.8068084716796875,
        1.001616358757019
      ],
      "min": [
        0.14620208740234375,
        -0.00323486328125
      ],
      "type": "VEC2"
    },
    {
      "bufferView": 0,
      "byteOffset": 40464,
      "componentType": 5125,
      "count": 12672,
      "max": [
        3713
      ],
      "min": [
        0
      ],
      "type": "SCALAR"
    }
  ],
  "asset": {
    "extras": {
      "author": "3DMaesen (https://sketchfab.com/bumstrum)",
      "license": "CC-BY-4.0 (http://creativecommons.org/licenses/by/4.0/)",
      "source": "https://sketchfab.com/models/fee2b59583084ae1a755a1b02133a42c",
      "title": "fantasy tree 1"
    },
    "generator": "Sketchfab-3.23.4",
    "version": "2.0"
  },
  "bufferViews": [
    {
      "buffer": 0,
      "byteLength": 91152,
      "byteOffset": 0,
      "name": "floatBufferViews",
      "target": 34963
    },
    {
      "buffer": 0,
      "byteLength": 50688,
      "byteOffset": 91152,
      "byteStride": 8,
      "name": "floatBufferViews",
      "target": 34962
    },
    {
      "buffer": 0,
      "byteLength": 152064,
      "byteOffset": 141840,
      "byteStride": 12,
      "name": "floatBufferViews",
      "target": 34962
    },
    {
      "buffer": 0,
      "byteLength": 101376,
      "byteOffset": 293904,
      "byteStride": 16,
      "name": "floatBufferViews",
      "target": 34962
    }
  ],
  "buffers": [
    {
      "byteLength": 395280,
      "uri": "scene.bin"
    }
  ],
  "extensionsRequired": [
    "KHR_materials_pbrSpecularGlossiness"
  ],
  "extensionsUsed": [
    "KHR_materials_pbrSpecularGlossiness"
  ],
  "images": [
    {
      "uri": "textures/branch_diffuse.png"
    },
    {
      "uri": "textures/branch_specularGlossiness.png"
    },
    {
      "uri": "textures/branch_normal.png"
    },
    {
      "uri": "textures/wooddebris_diffuse.png"
    },
    {
      "uri": "textures/wooddebris_normal.png"
    },
    {
      "uri": "textures/leaves_diffuse.png"
    },
    {
      "uri": "textures/leaves_normal.png"
    },
    {
      "uri": "textures/plant1_diffuse.png"
    },
    {
      "uri": "textures/plant1_specularGlossiness.png"
    },
    {
      "uri": "textures/plant1_normal.png"
    },
    {
      "uri": "textures/tree1_diffuse.png"
    },
    {
      "uri": "textures/tree1_normal.png"
    },
    {
      "uri": "textures/tree1_specularGlossiness.png"
    }
  ],
  "materials": [
    {
      "alphaMode": "BLEND",
      "doubleSided": false,
      "extensions": {
        "KHR_materials_pbrSpecularGlossiness": {
          "diffuseFactor": [
            1,
            1,
            1,
            1
          ],
          "diffuseTexture": {
            "index": 7,
            "texCoord": 0
          },
          "glossinessFactor": 1,
          "specularFactor": [
            1,
            1,
            1
          ],
          "specularGlossinessTexture": {
            "index": 8,
            "texCoord": 0
          }
        }
      },
      "name": "plant1",
      "normalTexture": {
        "index": 9,
        "scale": 1,
        "texCoord": 0
      }
    },
    {
      "alphaMode": "BLEND",
      "doubleSided": false,
      "extensions": {
        "KHR_materials_pbrSpecularGlossiness": {
          "diffuseFactor": [
            1,
            1,
            1,
            1
          ],
          "diffuseTexture": {
            "index": 3,
            "texCoord": 0
          },
          "glossinessFactor": 0.17854420730000001,
          "specularFactor": [
            0,
            0,
            0
          ]
        }
      },
      "name": "wooddebris",
      "normalTexture": {
        "index": 4,
        "scale": 1,
        "texCoord": 0
      }
    },
    {
      "alphaMode": "BLEND",
      "doubleSided": true,
      "extensions": {
        "KHR_materials_pbrSpecularGlossiness": {
          "diffuseFactor": [
            1,
            1,
            1,
            1
          ],
          "diffuseTexture": {
            "index": 5,
            "texCoord": 0
          },
          "glossinessFactor": 0.40000000000000002,
          "specularFactor": [
            0,
            0,
            0
          ]
        }
      },
      "name": "leaves",
      "normalTexture": {
        "index": 6,
        "scale": 1,
        "texCoord": 0
      }
    },
    {
      "doubleSided": false,
      "extensions": {
        "KHR_materials_pbrSpecularGlossiness": {
          "diffuseFactor": [
            1,
            1,
            1,
            1
          ],
          "diffuseTexture": {
            "index": 10,
            "texCoord": 0
          },
          "glossinessFactor": 1,
          "specularFactor": [
            1,
            1,
            1
          ],
          "specularGlossinessTexture": {
            "index": 12,
            "texCoord": 0
          }
        }
      },
      "name": "tree1",
      "normalTexture": {
        "index": 11,
        "scale": 1,
        "texCoord": 0
      }
    },
    {
      "alphaMode": "BLEND",
      "doubleSided": false,
      "extensions": {
        "KHR_materials_pbrSpecularGlossiness": {
          "diffuseFactor": [
            1,
            1,
            1,
            1
          ],
          "diffuseTexture": {
            "index": 0,
            "texCoord": 0
          },
          "glossinessFactor": 1,
          "specularFactor": [
            1,
            1,
            1
          ],
          "specularGlossinessTexture": {
            "index": 1,
            "texCoord": 0
          }
        }
      },
      "name": "branch",
      "normalTexture": {
        "index": 2,
        "scale": 1,
        "texCoord": 0
      }
    }
  ],
  "meshes": [
    {
      "name": "plant1_1_plant1_0",
      "primitives": [
        {
          "attributes": {
            "NORMAL": 1,
            "POSITION": 0,
            "TANGENT": 2,
            "TEXCOORD_0": 3
          },
          "indices": 4,
          "material": 0,
          "mode": 4
        }
      ]
    },
    {
      "name": "wooddebris_wooddebris_0",
      "primitives": [
        {
          "attributes": {
            "NORMAL": 6,
            "POSITION": 5,
            "TANGENT": 7,
            "TEXCOORD_0": 8
          },
          "indices": 9,
          "material": 1,
          "mode": 4
        }
      ]
    },
    {
      "name": "dryleaves_1_leaves_0",
      "primitives": [
        {
          "attributes": {
            "NORMAL": 11,
            "POSITION": 10,
            "TANGENT": 12,
            "TEXCOORD_0": 13
          },
          "indices": 14,
          "material": 2,
          "mode": 4
        }
      ]
    },
    {
      "name": "tree1_tree1_0",
      "primitives": [
        {
          "attributes": {
            "NORMAL": 16,
            "POSITION": 15,
            "TANGENT": 17,
            "TEXCOORD_0": 18
          },
          "indices": 19,
          "material": 3,
          "mode": 4
        }
      ]
    },
    {
      "name": "leaves_branch_0",
      "primitives": [
        {
          "attributes": {
            "NORMAL": 21,
            "POSITION": 20,
            "TANGENT": 22,
            "TEXCOORD_0": 23
          },
          "indices": 24,
          "material": 4,
          "mode": 4
        }
      ]
    }
  ],
  "nodes": [
    {
      "children": [
        1
      ],
      "name": "RootNode (gltf orientation matrix)",
      "rotation": [
        -0.70710678118654746,
        -0,
        -0,
        0.70710678118654757
      ]
    },
    {
      "children": [
        2
      ],
      "name": "RootNode (model correction matrix)"
    },
    {
      "children": [
        3
      ],
      "matrix": [
        1,
        0,
        0,
        0,
        0,
        0,
        1,
        0,
        0,
        -1,
        0,
        0,
        0,
        0,
        0,
        1
      ],
      "name": "526278bf0bed4816b8dcd1c4a272a747.fbx"
    },
    {
      "children": [
        4
      ],
      "name": "RootNode"
    },
    {
      "children": [
        5,
        7,
        9,
        11
      ],
      "matrix": [
        1,
        0,
        0,
        0,
        0,
        1,
        0,
        0,
        0,
        0,
        1,
        0,
        -3.6030690670013428,
        1.2236058712005615,
        -14.876725196838379,
        1
      ],
      "name": "scene"
    },
    {
      "children": [
        6
      ],
      "matrix": [
        1,
        0,
        0,
        0,
        0,
        1,
        0,
        0,
        0,
        0,
        1,
        0,
        -57.128421783447266,
        -4.2195072174072266,
        64.32244873046875,
        1
      ],
      "name": "plant1_1"
    },
    {
      "mesh": 0,
      "name": "plant1_1_plant1_0"
    },
    {
      "children": [
        8
      ],
      "matrix": [
        1,
        0,
        0,
        0,
        0,
        1,
        0,
        0,
        0,
        0,
        1,
        0,
        2.5511510372161865,
        1.2755807638168335,
        16.274480819702148,
        1
      ],
      "name": "wooddebris"
    },
    {
      "mesh": 1,
      "name": "wooddebris_wooddebris_0"
    },
    {
      "children": [
        10
      ],
      "matrix": [
        0.38813834114841728,
        0.0058056401657077678,
        -0.92158283549164544,
        0,
        -0.005933329785766198,
        0.99997517531139735,
        0.0038005734558806048,
        0,
        0.92158202224664099,
        0.0039929066112952454,
        0.38816315251268407,
        0,
        -16.915756225585938,
        -0.86897081136703491,
        -71.464195251464844,
        1
      ],
      "name": "dryleaves_1"
    },
    {
      "mesh": 2,
      "name": "dryleaves_1_leaves_0"
    },
    {
      "children": [
        12,
        13
      ],
      "matrix": [
        1,
        0,
        0,
        0,
        0,
        1,
        0,
        0,
        0,
        0,
        1,
        0,
        3.3622760772705078,
        4.7677397727966309,
        14.876725196838379,
        1
      ],
      "name": "tree1"
    },
    {
      "mesh": 3,
      "name": "tree1_tree1_0"
    },
    {
      "children": [
        14
      ],
      "matrix": [
        1,
        0,
        0,
        0,
        0,
        1,
        0,
        0,
        0,
        0,
        1,
        0,
        -1.0985012054443359,
        121.62747955322266,
        10.243838310241699,
        1
      ],
      "name": "leaves"
    },
    {
      "mesh": 4,
      "name": "leaves_branch_0"
    }
  ],
  "samplers": [
    {
      "magFilter": 9729,
      "minFilter": 9987,
      "wrapS": 10497,
      "wrapT": 10497
    }
  ],
  "scene": 0,
  "scenes": [
    {
      "name": "OSG_Scene",
      "nodes": [
        0
      ]
    }
  ],
  "textures": [
    {
      "sampler": 0,
      "source": 0
    },
    {
      "sampler": 0,
      "source": 1
    },
    {
      "sampler": 0,
      "source": 2
    },
    {
      "sampler": 0,
      "source": 3
    },
    {
      "sampler": 0,
      "source": 4
    },
    {
      "sampler": 0,
      "source": 5
    },
    {
      "sampler": 0,
      "source": 6
    },
    {
      "sampler": 0,
      "source": 7
    },
    {
      "sampler": 0,
      "source": 8
    },
    {
      "sampler": 0,
      "source": 9
    },
    {
      "sampler": 0,
      "source": 10
    },
    {
      "sampler": 0,
      "source": 11
    },
    {
      "sampler": 0,
      "source": 12
    }
  ]
}

